<svg id="visual" viewBox="0 0 1536 721" width="1536" height="721" xmlns="http://www.w3.org/2000/svg" xmlns:xlink="http://www.w3.org/1999/xlink" version="1.1"><rect x="0" y="0" width="1536" height="721" fill="#171C69"></rect><defs><linearGradient id="grad1_0" x1="53%" y1="0%" x2="100%" y2="100%"><stop offset="7.428048780487809%" stop-color="#171c69" stop-opacity="1"></stop><stop offset="92.5719512195122%" stop-color="#171c69" stop-opacity="1"></stop></linearGradient></defs><defs><linearGradient id="grad2_0" x1="0%" y1="0%" x2="47%" y2="100%"><stop offset="7.428048780487809%" stop-color="#171c69" stop-opacity="1"></stop><stop offset="92.5719512195122%" stop-color="#171c69" stop-opacity="1"></stop></linearGradient></defs><g transform="translate(1536, 0)"><path d="M0 328C-34.3 302.3 -68.6 276.5 -109.4 264.2C-150.3 251.9 -197.7 253.1 -231.9 231.9C-266.2 210.7 -287.4 167.1 -301.2 124.8C-315 82.4 -321.5 41.2 -328 0L0 0Z" fill="#014CED"></path></g><g transform="translate(0, 721)"><path d="M0 -328C42.2 -323.3 84.5 -318.6 125.5 -303C166.6 -287.5 206.4 -261.1 225.6 -225.6C244.7 -190.1 243.2 -145.5 256.8 -106.4C270.5 -67.3 299.2 -33.6 328 0L0 0Z" fill="#014CED"></path></g></svg>